<?xml version="1.0" encoding="utf-8"?>
<!-- Generator: Adobe Illustrator 16.0.0, SVG Export Plug-In . SVG Version: 6.00 Build 0)  -->
<!DOCTYPE svg PUBLIC "-//W3C//DTD SVG 1.1//EN" "http://www.w3.org/Graphics/SVG/1.1/DTD/svg11.dtd">
<svg version="1.1" id="Layer_1" xmlns="http://www.w3.org/2000/svg" xmlns:xlink="http://www.w3.org/1999/xlink" x="0px" y="0px"
	 width="1848px" height="664px" viewBox="0 0 1848 664" enable-background="new 0 0 1848 664" xml:space="preserve">
<g>
	<g>
		<path fill="#9F2127" d="M792.888,397.336v-6.572l8.412-0.787c8.677-0.788,12.093-2.893,12.093-8.676
			c0-5.782-3.155-14.984-12.093-35.749h-59.145l-3.416,8.938c-3.153,8.149-8.148,19.191-8.148,25.492
			c0,6.84,5.781,9.729,21.293,10.782v6.572h-53.1v-6.572c12.091-2.098,16.036-6.836,26.021-31.543l58.097-143.261h7.359
			l58.354,137.214c13.407,31.81,18.14,37.59,28.917,37.59v6.572H792.888z M770.81,271.427L746.101,335.3h51.258L770.81,271.427z"/>
		<path fill="#9F2127" d="M969.013,311.643c-3.946-11.301-6.837-16.3-12.357-21.556c-5.785-5.522-12.617-8.414-19.716-8.414
			c-9.988,0-17.35,6.577-17.35,15.246c0,8.94,7.361,15.777,25.236,23.135c26.287,11.042,36.277,22.345,36.277,41.007
			c0,23.659-16.562,39.954-40.484,39.954c-7.359,0-20.766-2.888-28.389-6.043c-2.631-1.054-4.733-1.577-6.047-1.577
			c-2.366,0-3.943,1.841-6.834,7.36h-6.572V357.38h7.359c5.521,22.867,17.615,34.702,36.014,34.702
			c11.828,0,19.715-6.843,19.715-17.091c0-8.407-7.096-14.984-25.23-22.871c-26.552-11.301-37.33-23.392-37.33-40.74
			c0-22.076,17.35-38.377,41.271-38.377c6.044,0,12.093,1.049,20.501,3.939c4.207,1.316,6.572,1.841,8.153,1.841
			c3.413,0,4.989-1.317,6.571-5.261h5.78v38.12H969.013z"/>
		<path fill="#9F2127" d="M1073.896,370.789c-10.778,21.557-21.29,29.701-38.905,29.701c-18.138,0-29.442-10.514-29.442-28.122
			v-84.646h-13.931v-7.095c18.928-12.885,28.653-26.815,43.897-48.895h6.574v44.423h24.975v11.566h-24.975v78.334
			c0,10.514,2.891,15.772,10.251,15.772c5.519,0,9.724-3.945,14.979-13.933L1073.896,370.789z"/>
		<path fill="#9F2127" d="M1131.465,297.71c12.356-17.874,22.342-24.707,35.486-24.707c12.353,0,21.293,8.67,21.293,20.764
			c0,10.512-6.837,17.876-16.562,17.876c-6.834,0-11.302-2.63-15.772-9.989c-2.892-4.734-5.256-6.049-7.359-6.049
			c-9.201,0-16.037,11.832-16.037,27.344v46.525c0,16.822,2.895,20.503,18.928,21.552v6.311h-69.66v-6.311
			c11.566-2.103,14.194-4.993,14.194-15.769v-75.971c0-12.353-3.153-15.241-14.453-16.822v-6.309h49.942V297.71z"/>
		<path fill="#9F2127" d="M1253.436,401.015c-32.861,0-59.147-26.284-59.147-63.609c0-38.378,25.497-64.402,60.196-64.402
			c33.122,0,58.355,26.808,58.355,64.14C1312.84,374.203,1287.343,401.015,1253.436,401.015z M1253.699,281.15
			c-16.037,0-20.767,13.934-20.767,58.886c0,38.112,5.517,52.832,20.767,52.832c15.243,0,20.501-13.67,20.501-52.832
			C1274.2,295.084,1269.208,281.15,1253.699,281.15z"/>
		<path fill="#9F2127" d="M1439.814,282.464c-8.152,0.79-10.255,2.366-15.248,14.455l-42.061,104.096h-6.837l-31.542-77.803
			c-5.258-12.885-14.979-33.908-17.349-37.066c-1.577-2.101-3.153-2.892-8.937-3.682v-6.309h65.718v6.309l-4.733,0.523
			c-6.571,0.791-9.199,2.37-9.199,6.316c0,1.832,0.264,2.887,2.367,8.146l20.766,53.356l18.923-47.839
			c2.105-4.994,2.896-8.675,2.896-11.832c0-6.306-3.155-8.148-14.462-8.672v-6.309h39.697V282.464z"/>
		<path fill="#9F2127" d="M1447.963,397.336v-6.311c12.089-2.887,13.93-4.729,13.93-16.822v-74.917
			c0-11.83-2.627-14.456-14.191-16.822v-6.309h50.733v98.836c0,11.305,3.416,14.719,12.615,16.034v6.311H1447.963z M1479.77,239.967
			c-11.566,0-20.236-8.677-20.236-20.243s8.934-20.502,20.762-20.502c11.041,0,19.979,9.196,19.979,20.502
			C1500.274,231.29,1491.336,239.967,1479.77,239.967z"/>
		<path fill="#9F2127" d="M1534.021,397.336v-6.311c8.938-0.788,13.406-4.993,13.406-16.557V243.036
			c0-9.727-4.469-16.299-13.67-17.084v-6.317h50.211v154.834c0,12.094,4.468,16.295,13.143,16.557v6.311H1534.021z"/>
		<path fill="#9F2127" d="M1731.173,386.032c-9.99,10.781-18.138,14.982-29.438,14.982c-12.881,0-18.664-4.729-21.561-18.133
			c-14.458,13.139-26.544,18.133-41.792,18.133c-16.822,0-28.916-8.412-28.916-27.863c0-11.563,5.783-21.554,17.615-29.44
			c9.99-6.568,22.345-11.306,52.837-19.979v-17.872c0-16.825-5.789-24.452-21.295-24.452c-9.463,0-17.084,3.423-17.084,9.729
			c0,1.578,0.521,3.419,2.887,6.049c3.418,4.202,5,7.361,5,11.039c0,8.942-7.365,15.773-17.877,15.773
			c-10.777,0-17.086-6.831-17.086-17.874c0-21.026,20.5-33.12,50.203-33.12c32.073,0,51.524,12.617,51.524,35.221v68.605
			c0,4.472,1.84,7.364,5.521,7.364c1.313,0,2.101-0.266,2.89-1.052l2.631-2.628L1731.173,386.032z M1679.918,332.938
			c-21.032,5.78-32.074,16.557-32.074,31.798c0,11.568,5.786,17.617,13.67,17.617c6.311,0,12.615-2.371,18.404-10.519V332.938z"/>
	</g>
</g>
<g>
	<g>
		<g>
			<path fill="#9F2127" d="M424.477,100.262c0,0,1.274,0.454,3.761,1.348c1.239,0.438,2.776,0.993,4.606,1.643
				c0.921,0.324,1.906,0.674,2.962,1.049c0.533,0.19,1.079,0.387,1.644,0.589c0.553,0.237,1.125,0.479,1.713,0.724
				c4.68,2.016,10.591,4.25,17.186,7.633c1.664,0.807,3.395,1.643,5.185,2.518c1.784,0.883,3.554,1.941,5.417,2.956
				c3.701,2.079,7.697,4.199,11.676,6.853c2.017,1.273,4.089,2.588,6.21,3.938c1.08,0.645,2.096,1.408,3.15,2.153
				c1.05,0.75,2.11,1.509,3.183,2.271c2.141,1.551,4.377,3.074,6.576,4.746c2.15,1.729,4.357,3.492,6.609,5.297
				c1.127,0.9,2.262,1.812,3.41,2.729c1.112,0.973,2.204,1.969,3.326,2.972c2.229,2.007,4.506,4.05,6.818,6.131
				c2.232,2.176,4.433,4.451,6.719,6.735c1.141,1.146,2.283,2.301,3.438,3.469c1.091,1.225,2.191,2.467,3.297,3.713
				c9.066,9.812,17.597,21.256,25.646,33.902c0.984,1.599,1.978,3.203,2.977,4.812c1.008,1.617,2.027,3.229,2.897,4.949
				c1.827,3.385,3.672,6.82,5.539,10.285c1.724,3.545,3.362,7.184,5.079,10.826c0.425,0.918,0.852,1.84,1.28,2.756
				c0.395,0.938,0.757,1.885,1.133,2.826c0.757,1.9,1.509,3.802,2.266,5.715c0.386,0.957,0.768,1.924,1.145,2.883l0.576,1.451
				l0.288,0.72l0.166,0.431l0.12,0.367c0.66,1.954,1.315,3.913,1.969,5.883c0.665,1.977,1.329,3.966,1.991,5.953
				c0.579,2.057,1.159,4.125,1.743,6.211c0.574,2.071,1.152,4.162,1.737,6.26c0.476,2.117,0.956,4.234,1.437,6.37
				c0.468,2.14,1.001,4.274,1.422,6.432c0.377,2.176,0.758,4.37,1.141,6.556c2.971,17.549,4.123,36.055,3.094,54.988
				c-1.115,18.914-4.402,38.234-10.011,57.369l-0.501,1.801l-0.582,1.775l-1.183,3.566c-0.806,2.367-1.534,4.77-2.409,7.131
				c-0.914,2.351-1.823,4.705-2.736,7.064l-1.389,3.541l-1.541,3.488c-1.037,2.322-2.072,4.654-3.105,6.984
				c-1.113,2.303-2.289,4.584-3.434,6.879c-2.207,4.641-4.891,9.062-7.401,13.586c-0.612,1.15-1.32,2.226-2.011,3.329l-2.072,3.306
				l-2.075,3.314l-1.055,1.648l-1.116,1.607c-2.997,4.274-5.92,8.636-9.221,12.746c-6.318,8.434-13.478,16.289-20.893,23.965
				c-1.918,1.858-3.844,3.715-5.768,5.568c-0.972,0.928-1.906,1.889-2.916,2.773l-3.023,2.651c-2.031,1.763-4.029,3.562-6.088,5.29
				c-2.113,1.684-4.223,3.352-6.346,5.027l-3.181,2.514l-3.31,2.349c-2.207,1.569-4.416,3.14-6.626,4.716
				c-2.286,1.459-4.574,2.918-6.868,4.381l-3.446,2.191c-1.164,0.713-2.36,1.363-3.539,2.043c-2.365,1.346-4.735,2.697-7.11,4.051
				c-2.4,1.293-4.864,2.484-7.303,3.729c-4.83,2.573-9.912,4.646-14.914,6.897c-1.245,0.578-2.527,1.067-3.811,1.556l-3.848,1.474
				l-3.851,1.483l-1.919,0.739c-0.068,0.026-0.459,0.164-0.594,0.211l-0.486,0.15l-0.961,0.307
				c-5.164,1.651-10.172,3.469-15.642,4.833c-2.688,0.716-5.372,1.503-8.068,2.155l-8.095,1.768
				c-1.349,0.283-2.694,0.604-4.051,0.865l-4.095,0.673l-8.187,1.338l-8.256,0.96l-4.125,0.459l-4.145,0.271l-8.293,0.525
				l-8.31,0.123c-1.388,0.016-2.77,0.055-4.155,0.045l-4.15-0.15c-2.774-0.115-5.537-0.186-8.305-0.328l-8.275-0.707
				c-1.383-0.131-2.764-0.214-4.135-0.379l-4.117-0.564c-2.737-0.389-5.485-0.711-8.218-1.154l-8.151-1.504
				c-2.73-0.453-5.412-1.121-8.1-1.755c-2.682-0.659-5.388-1.215-8.042-1.954c-5.301-1.548-10.635-2.942-15.815-4.818l-3.904-1.326
				c-1.303-0.433-2.604-0.879-3.874-1.402l-7.667-3.02l-1.913-0.753l-1.884-0.847l-3.749-1.684l-3.741-1.684l-1.871-0.848
				l-1.831-0.93c-2.432-1.24-4.872-2.484-7.304-3.719c-1.229-0.602-2.414-1.266-3.598-1.955l-3.55-2.025
				c-4.792-2.602-9.324-5.618-13.911-8.522c-1.159-0.698-2.26-1.495-3.365-2.279l-3.319-2.335c-2.203-1.583-4.466-3.064-6.556-4.774
				c-2.125-1.665-4.251-3.328-6.369-4.991c-1.078-0.811-2.084-1.71-3.104-2.59l-3.047-2.634c-4.137-3.423-7.941-7.207-11.811-10.875
				c-0.486-0.472-0.975-0.917-1.445-1.394l-1.378-1.445l-2.753-2.893l-2.751-2.893l-1.372-1.439l-1.303-1.506
				c-3.447-4.025-6.997-7.953-10.15-12.176c-1.602-2.092-3.273-4.125-4.806-6.246c-1.511-2.146-3.02-4.29-4.521-6.424
				c-0.745-1.07-1.515-2.129-2.243-3.219l-2.082-3.307c-1.391-2.195-2.777-4.393-4.158-6.582c-1.318-2.23-2.553-4.503-3.828-6.746
				c-1.246-2.263-2.592-4.461-3.689-6.791c-2.261-4.609-4.685-9.119-6.616-13.824c-1.016-2.331-2.035-4.662-3.046-6.982
				c-0.896-2.354-1.798-4.725-2.692-7.072l-1.322-3.531l-0.662-1.768l-0.596-1.855c-0.747-2.352-1.493-4.689-2.235-7.037
				l-1.11-3.496l-0.961-3.633c-0.634-2.408-1.269-4.818-1.902-7.211c-0.34-1.197-0.594-2.407-0.845-3.609
				c-0.248-1.197-0.498-2.396-0.752-3.596c-0.493-2.396-1.023-4.785-1.484-7.172c-0.38-2.402-0.757-4.795-1.138-7.181
				c-0.362-2.394-0.806-4.768-1.016-7.161c-0.253-2.389-0.508-4.768-0.763-7.14c-0.115-1.19-0.284-2.368-0.35-3.56
				c-0.07-1.189-0.139-2.367-0.201-3.553c-1.207-18.912-0.285-37.43,2.496-55.02c0.269-2.209,0.762-4.377,1.168-6.54
				c0.415-2.165,0.832-4.323,1.246-6.466c0.941-4.271,2.035-8.469,3.032-12.641c1.229-4.113,2.388-8.211,3.638-12.229
				c1.402-3.963,2.703-7.923,4.157-11.781c5.869-15.405,12.974-29.587,20.835-42.357c7.882-12.769,16.547-24.109,25.377-34.113
				c8.863-9.967,17.797-18.742,26.746-26.029c1.1-0.93,2.189-1.852,3.269-2.757c1.116-0.864,2.229-1.714,3.325-2.552
				c2.199-1.676,4.344-3.313,6.439-4.92c2.177-1.494,4.303-2.957,6.373-4.389c2.068-1.429,4.076-2.836,6.138-4.049
				c4.083-2.477,7.847-4.975,11.624-6.938c3.742-2.018,7.175-4.037,10.554-5.574c3.345-1.584,6.394-3.163,9.27-4.404
				c2.89-1.221,5.517-2.33,7.871-3.32c2.325-1.035,4.455-1.783,6.282-2.443c1.83-0.66,3.365-1.223,4.603-1.67
				c2.481-0.897,3.753-1.363,3.753-1.363s-1.258,0.504-3.702,1.485c-1.224,0.489-2.738,1.1-4.542,1.825
				c-1.8,0.716-3.899,1.533-6.199,2.641c-2.307,1.068-4.89,2.252-7.729,3.572c-2.824,1.33-5.809,3.003-9.09,4.686
				c-3.305,1.629-6.654,3.76-10.309,5.877c-3.696,2.051-7.369,4.635-11.354,7.209c-2.008,1.256-3.961,2.716-5.974,4.18
				c-2.013,1.472-4.08,2.979-6.188,4.521c-2.035,1.646-4.116,3.322-6.244,5.045c-1.062,0.861-2.138,1.728-3.225,2.612
				c-1.039,0.931-2.088,1.872-3.154,2.825c-8.625,7.449-17.279,16.277-25.781,26.314c-8.48,10.045-16.746,21.389-24.199,34.096
				c-7.438,12.715-14.188,26.703-19.652,41.885c-1.355,3.797-2.555,7.693-3.859,11.595c-1.154,3.944-2.216,7.966-3.342,12.001
				c-0.898,4.092-1.893,8.207-2.741,12.391c-0.366,2.096-0.737,4.209-1.104,6.328c-0.354,2.121-0.803,4.24-1.022,6.404
				c-2.413,17.183-3.136,35.195-1.71,53.561c0.077,1.146,0.16,2.292,0.24,3.445c0.078,1.152,0.257,2.305,0.387,3.449
				c0.279,2.307,0.551,4.613,0.829,6.928c0.228,2.323,0.692,4.615,1.072,6.931c0.399,2.317,0.794,4.638,1.192,6.962
				c0.477,2.312,1.023,4.618,1.527,6.939l0.781,3.478c0.252,1.166,0.512,2.332,0.853,3.456c0.631,2.287,1.266,4.575,1.905,6.879
				l0.949,3.441l1.156,3.487c5.976,18.456,13.982,36.548,24.403,53.694c1.351,2.102,2.71,4.219,4.069,6.334l2.038,3.186
				c0.705,1.029,1.461,2.043,2.19,3.083c1.464,2.052,2.934,4.103,4.41,6.171c1.502,2.035,3.128,3.986,4.691,5.99
				c3.076,4.061,6.532,7.82,9.891,11.688l1.266,1.438l1.338,1.379l2.672,2.77l2.682,2.772l1.342,1.385
				c0.451,0.451,0.933,0.891,1.396,1.328c14.859,14.262,31.523,27.061,49.844,37.361l3.428,1.941
				c1.139,0.658,2.287,1.305,3.469,1.881l7.051,3.559l1.766,0.895l1.805,0.809l3.613,1.621l3.62,1.612l1.809,0.807l1.846,0.723
				l7.396,2.888c1.227,0.509,2.479,0.925,3.735,1.34l3.772,1.277c4.992,1.803,10.135,3.118,15.239,4.596
				c2.56,0.718,5.169,1.238,7.752,1.861c2.583,0.609,5.169,1.238,7.802,1.664l7.85,1.444c2.633,0.418,5.279,0.712,7.919,1.078
				l3.962,0.532c1.322,0.163,2.654,0.229,3.971,0.35l7.973,0.678l7.988,0.281l3.998,0.141l3.998-0.041l7.994-0.1l7.981-0.494
				l3.997-0.242l3.969-0.439l7.941-0.89l7.885-1.271l3.945-0.648c1.305-0.236,2.604-0.549,3.903-0.819l7.802-1.677
				c2.574-0.623,5.092-1.352,7.639-2.022c5.057-1.221,10.247-3.083,15.377-4.702l0.964-0.312l0.481-0.156
				c0.184-0.061,0.105-0.032,0.361-0.128l1.857-0.704l3.717-1.416l3.711-1.412c1.235-0.472,2.475-0.935,3.673-1.494
				c4.822-2.168,9.737-4.134,14.39-6.611c2.35-1.191,4.73-2.324,7.049-3.568c2.29-1.297,4.575-2.596,6.859-3.893
				c1.14-0.65,2.293-1.28,3.418-1.95l3.32-2.112c2.213-1.404,4.424-2.803,6.631-4.207c2.134-1.507,4.27-3.014,6.398-4.523
				l3.199-2.246l3.082-2.404c2.055-1.6,4.104-3.196,6.149-4.792c1.995-1.665,3.938-3.378,5.907-5.067l2.938-2.536
				c0.981-0.837,1.884-1.77,2.833-2.646c1.871-1.775,3.74-3.557,5.605-5.336c7.211-7.35,14.18-14.879,20.344-22.98
				c3.227-3.941,6.078-8.137,9.004-12.252l1.096-1.541l1.025-1.59l2.029-3.188l2.034-3.169c0.677-1.065,1.37-2.102,1.968-3.212
				c2.461-4.359,5.09-8.614,7.258-13.081c1.125-2.22,2.278-4.419,3.375-6.632c1.021-2.258,2.04-4.5,3.057-6.747l1.522-3.36
				l1.37-3.414c0.905-2.279,1.805-4.553,2.708-6.821c0.877-2.271,1.61-4.589,2.426-6.878l1.181-3.434l0.595-1.716l0.508-1.743
				c5.667-18.463,9.103-37.172,10.417-55.547c1.256-18.383,0.299-36.387-2.291-53.541c-0.336-2.148-0.669-4.284-0.996-6.404
				c-0.375-2.122-0.851-4.209-1.276-6.306c-0.428-2.082-0.858-4.173-1.294-6.237c-0.525-2.037-1.047-4.061-1.57-6.074
				c-0.527-2.022-1.049-4.029-1.568-6.029c-0.628-2.006-1.256-3.998-1.88-5.979c-0.627-1.985-1.251-3.958-1.869-5.925l-0.118-0.37
				l-0.109-0.29l-0.268-0.711l-0.537-1.424c-0.359-0.95-0.717-1.895-1.07-2.839c-0.711-1.886-1.418-3.759-2.119-5.632
				c-0.358-0.938-0.693-1.875-1.064-2.799c-0.4-0.897-0.805-1.802-1.204-2.707c-1.618-3.605-3.162-7.195-4.788-10.693
				c-1.769-3.435-3.521-6.828-5.252-10.182c-0.826-1.693-1.798-3.303-2.741-4.908c-0.951-1.607-1.888-3.204-2.821-4.79
				c-7.615-12.59-15.756-24.044-24.465-33.895c-1.064-1.254-2.122-2.507-3.168-3.738c-1.112-1.173-2.218-2.335-3.311-3.493
				c-2.2-2.301-4.327-4.596-6.483-6.796c-2.237-2.104-4.437-4.185-6.59-6.216c-1.082-1.012-2.136-2.035-3.209-3.019
				c-1.108-0.936-2.208-1.862-3.293-2.788c-2.183-1.845-4.312-3.648-6.396-5.414c-2.134-1.715-4.305-3.283-6.379-4.871
				c-1.042-0.792-2.078-1.566-3.096-2.338c-1.022-0.768-2.011-1.559-3.063-2.23c-2.068-1.393-4.087-2.746-6.054-4.063
				c-3.88-2.737-7.783-4.951-11.405-7.112c-1.828-1.072-3.548-2.188-5.292-3.115c-1.749-0.924-3.442-1.814-5.076-2.678
				c-6.454-3.58-12.244-5.992-16.858-8.16c-0.576-0.262-1.143-0.521-1.686-0.771c-0.556-0.223-1.094-0.436-1.619-0.643
				c-1.046-0.412-2.022-0.801-2.924-1.146c-1.811-0.722-3.328-1.313-4.557-1.797C425.742,100.768,424.477,100.262,424.477,100.262z"
				/>
			<g>
				<path fill="#9F2127" d="M355.197,126.164c-17.711,6.262-37.215-3.047-43.479-20.762c-6.261-17.707,3.054-37.213,20.766-43.475
					c17.711-6.264,37.213,3.053,43.474,20.761C382.222,100.402,372.909,119.9,355.197,126.164z M334.898,68.756
					c-13.945,4.931-21.274,20.285-16.344,34.23c4.931,13.944,20.282,21.275,34.227,16.345c13.941-4.93,21.276-20.282,16.346-34.228
					C364.196,71.16,348.84,63.826,334.898,68.756z"/>
			</g>
			<path fill="#9F2127" d="M360.239,88.246c3.202,9.057-1.539,18.998-10.599,22.201c-9.063,3.205-19-1.546-22.202-10.603
				c-3.202-9.058,1.538-19.001,10.602-22.205C347.1,74.436,357.037,79.189,360.239,88.246z"/>
			<path fill="#9F2127" d="M574.827,452.98c3.415,9.656-1.644,20.248-11.297,23.662c-9.647,3.411-20.245-1.645-23.66-11.301
				c-3.412-9.65,1.654-20.238,11.302-23.65C560.825,438.278,571.415,443.331,574.827,452.98z"/>
			<path fill="#9F2127" d="M145.478,452.98c3.415,9.656-1.644,20.248-11.297,23.662c-9.647,3.411-20.245-1.645-23.66-11.301
				c-3.412-9.65,1.654-20.238,11.302-23.65C131.476,438.278,142.065,443.331,145.478,452.98z"/>
		</g>
	</g>
</g>
<polygon fill="#9F2127" points="339.823,437.295 310.352,382.129 369.295,382.129 "/>
<path fill="#9F2127" d="M359.134,224.357c-3.165-7.926-10.897-13.531-19.95-13.531c-8.959,0-16.631,5.486-19.858,13.277
	L205.573,439.494h72.595l61.655-115.404l61.655,115.404h72.595L359.134,224.357z"/>
</svg>
