<svg xmlns="http://www.w3.org/2000/svg" width="36" height="36" viewBox="0 0 36 36"><defs><style>.a{fill:#fff;}.b{fill:none;stroke:#fff;stroke-linecap:round;stroke-width:1.5px;}</style></defs><path class="a" d="M29.9,48.866a3.649,3.649,0,0,0-2.67-1.25,3.772,3.772,0,0,0-2.7,1.242l-2.5,2.54c-.205-.113-.411-.218-.608-.323-.284-.145-.553-.282-.782-.427a27.34,27.34,0,0,1-6.5-6.048,16.4,16.4,0,0,1-2.133-3.435c.648-.6,1.248-1.234,1.833-1.839.221-.226.442-.46.664-.685a3.751,3.751,0,0,0,0-5.581l-2.157-2.2c-.245-.25-.5-.508-.735-.766-.474-.5-.972-1.016-1.485-1.5a3.7,3.7,0,0,0-2.646-1.185,3.831,3.831,0,0,0-2.686,1.185l-.016.016L2.091,31.374a5.953,5.953,0,0,0-1.714,3.75,14.4,14.4,0,0,0,1.011,5.984A34.881,34.881,0,0,0,7.431,51.4a37.3,37.3,0,0,0,12.379,9.9,19,19,0,0,0,6.952,2.1c.166.008.34.016.5.016a5.9,5.9,0,0,0,4.558-2c.008-.016.024-.024.032-.04a18.165,18.165,0,0,1,1.382-1.46c.34-.331.687-.677,1.027-1.04a4.064,4.064,0,0,0,1.193-2.79,3.913,3.913,0,0,0-1.217-2.766Zm2.828,8.492c-.008,0-.008.008,0,0-.308.339-.624.645-.964.984a21.017,21.017,0,0,0-1.525,1.613,3.772,3.772,0,0,1-2.97,1.282c-.118,0-.245,0-.363-.008a16.878,16.878,0,0,1-6.162-1.887,35.206,35.206,0,0,1-11.66-9.323A32.888,32.888,0,0,1,3.395,40.35,11.729,11.729,0,0,1,2.51,35.3a3.735,3.735,0,0,1,1.09-2.4l2.694-2.75a1.78,1.78,0,0,1,1.2-.573,1.677,1.677,0,0,1,1.153.565l.024.024c.482.46.94.935,1.422,1.444.245.258.5.516.75.782L13,34.6a1.558,1.558,0,0,1,0,2.5c-.229.234-.45.468-.679.694-.664.694-1.3,1.339-1.983,1.968-.016.016-.032.024-.039.04a1.67,1.67,0,0,0-.411,1.831l.024.073a17.748,17.748,0,0,0,2.552,4.25l.008.008a29.216,29.216,0,0,0,7.015,6.516,10.719,10.719,0,0,0,.972.54c.284.145.553.282.782.427.032.016.063.04.095.056a1.589,1.589,0,0,0,1.983-.355l2.7-2.758a1.775,1.775,0,0,1,1.193-.6,1.6,1.6,0,0,1,1.138.589l.016.016,4.353,4.444A1.615,1.615,0,0,1,32.726,57.358Z" transform="translate(-0.344 -27.406)"/><g transform="translate(17.797 3.976)"><path class="b" d="M2.188,20H11.98" transform="translate(2.679 -10.206)"/><path class="b" d="M13.424,20H2.188" transform="translate(-0.177 -16.755)"/><path class="a" d="M3.3,0l3.3,4.956H0Z" transform="translate(18.203 6.49) rotate(90)"/><path class="a" d="M3.245,0,6.49,4.868H0Z" transform="translate(0 6.49) rotate(-90)"/></g></svg>